<mxfile host="app.diagrams.net" modified="2021-05-14T14:45:32.049Z" agent="5.0 (Windows NT 10.0; Win64; x64) AppleWebKit/537.36 (KHTML, like Gecko) Chrome/90.0.4430.212 Safari/537.36" etag="D12NtZtIST_HfGaFHLrC" version="14.6.13" type="github">
  <diagram id="C5RBs43oDa-KdzZeNtuy" name="Page-1">
    <mxGraphModel dx="868" dy="484" grid="1" gridSize="10" guides="1" tooltips="1" connect="1" arrows="1" fold="1" page="1" pageScale="1" pageWidth="827" pageHeight="1169" math="0" shadow="0">
      <root>
        <mxCell id="WIyWlLk6GJQsqaUBKTNV-0" />
        <mxCell id="WIyWlLk6GJQsqaUBKTNV-1" parent="WIyWlLk6GJQsqaUBKTNV-0" />
        <mxCell id="WIyWlLk6GJQsqaUBKTNV-3" value="получение числа от пользователя" style="rounded=1;whiteSpace=wrap;html=1;fontSize=12;glass=0;strokeWidth=1;shadow=0;" parent="WIyWlLk6GJQsqaUBKTNV-1" vertex="1">
          <mxGeometry x="470" y="150" width="210" height="40" as="geometry" />
        </mxCell>
        <mxCell id="RUl-6O_mT9dBvLN3qeWU-0" value="main" style="swimlane;" vertex="1" parent="WIyWlLk6GJQsqaUBKTNV-1">
          <mxGeometry x="40" y="180" width="350" height="230" as="geometry" />
        </mxCell>
        <mxCell id="RUl-6O_mT9dBvLN3qeWU-1" value="подключение кириллицы&lt;br&gt;вывод на экран сообщения о предназначении программы" style="rounded=1;whiteSpace=wrap;html=1;align=left;" vertex="1" parent="RUl-6O_mT9dBvLN3qeWU-0">
          <mxGeometry y="20" width="350" height="30" as="geometry" />
        </mxCell>
        <mxCell id="RUl-6O_mT9dBvLN3qeWU-4" value="создание массива с помощью выделения памяти под нужное количество элементов" style="rounded=1;whiteSpace=wrap;html=1;align=left;" vertex="1" parent="RUl-6O_mT9dBvLN3qeWU-0">
          <mxGeometry y="80" width="350" height="30" as="geometry" />
        </mxCell>
        <mxCell id="RUl-6O_mT9dBvLN3qeWU-3" value="получение количества элементов массива" style="rounded=1;whiteSpace=wrap;html=1;align=left;" vertex="1" parent="RUl-6O_mT9dBvLN3qeWU-0">
          <mxGeometry y="50" width="350" height="30" as="geometry" />
        </mxCell>
        <mxCell id="RUl-6O_mT9dBvLN3qeWU-7" value="задание элементов массива" style="rounded=1;whiteSpace=wrap;html=1;align=left;" vertex="1" parent="RUl-6O_mT9dBvLN3qeWU-0">
          <mxGeometry y="110" width="350" height="30" as="geometry" />
        </mxCell>
        <mxCell id="RUl-6O_mT9dBvLN3qeWU-34" value="вывод НОД массива на экран" style="rounded=1;whiteSpace=wrap;html=1;align=left;" vertex="1" parent="RUl-6O_mT9dBvLN3qeWU-0">
          <mxGeometry y="170" width="350" height="30" as="geometry" />
        </mxCell>
        <mxCell id="RUl-6O_mT9dBvLN3qeWU-37" value="освобождение памяти, выделенной под массив" style="rounded=1;whiteSpace=wrap;html=1;align=left;" vertex="1" parent="RUl-6O_mT9dBvLN3qeWU-0">
          <mxGeometry y="200" width="350" height="30" as="geometry" />
        </mxCell>
        <mxCell id="RUl-6O_mT9dBvLN3qeWU-11" value="определение элементов массива случайным образом" style="rounded=1;whiteSpace=wrap;html=1;fontSize=12;glass=0;strokeWidth=1;shadow=0;" vertex="1" parent="WIyWlLk6GJQsqaUBKTNV-1">
          <mxGeometry x="470" y="220" width="210" height="40" as="geometry" />
        </mxCell>
        <mxCell id="RUl-6O_mT9dBvLN3qeWU-33" style="edgeStyle=orthogonalEdgeStyle;rounded=0;orthogonalLoop=1;jettySize=auto;html=1;entryX=1;entryY=0.5;entryDx=0;entryDy=0;" edge="1" parent="WIyWlLk6GJQsqaUBKTNV-1" source="RUl-6O_mT9dBvLN3qeWU-12" target="WIyWlLk6GJQsqaUBKTNV-3">
          <mxGeometry relative="1" as="geometry">
            <Array as="points">
              <mxPoint x="710" y="290" />
              <mxPoint x="710" y="170" />
            </Array>
          </mxGeometry>
        </mxCell>
        <mxCell id="RUl-6O_mT9dBvLN3qeWU-12" value="определение элементов массива пользователем" style="rounded=1;whiteSpace=wrap;html=1;fontSize=12;glass=0;strokeWidth=1;shadow=0;" vertex="1" parent="WIyWlLk6GJQsqaUBKTNV-1">
          <mxGeometry x="470" y="270" width="210" height="40" as="geometry" />
        </mxCell>
        <mxCell id="RUl-6O_mT9dBvLN3qeWU-13" value="" style="shape=flexArrow;endArrow=classic;html=1;entryX=0;entryY=0.75;entryDx=0;entryDy=0;" edge="1" parent="WIyWlLk6GJQsqaUBKTNV-1" target="WIyWlLk6GJQsqaUBKTNV-3">
          <mxGeometry width="50" height="50" relative="1" as="geometry">
            <mxPoint x="390" y="250" as="sourcePoint" />
            <mxPoint x="430" y="200" as="targetPoint" />
          </mxGeometry>
        </mxCell>
        <mxCell id="RUl-6O_mT9dBvLN3qeWU-14" value="" style="shape=flexArrow;endArrow=classic;html=1;entryX=0;entryY=0.5;entryDx=0;entryDy=0;" edge="1" parent="WIyWlLk6GJQsqaUBKTNV-1" target="RUl-6O_mT9dBvLN3qeWU-11">
          <mxGeometry width="50" height="50" relative="1" as="geometry">
            <mxPoint x="390" y="310" as="sourcePoint" />
            <mxPoint x="500" y="280" as="targetPoint" />
            <Array as="points" />
          </mxGeometry>
        </mxCell>
        <mxCell id="RUl-6O_mT9dBvLN3qeWU-15" value="" style="shape=flexArrow;endArrow=classic;html=1;entryX=0;entryY=0.5;entryDx=0;entryDy=0;" edge="1" parent="WIyWlLk6GJQsqaUBKTNV-1" target="RUl-6O_mT9dBvLN3qeWU-12">
          <mxGeometry width="50" height="50" relative="1" as="geometry">
            <mxPoint x="390" y="310" as="sourcePoint" />
            <mxPoint x="510" y="290" as="targetPoint" />
          </mxGeometry>
        </mxCell>
        <mxCell id="RUl-6O_mT9dBvLN3qeWU-19" value="печать элементов массива" style="rounded=1;whiteSpace=wrap;html=1;fontSize=12;glass=0;strokeWidth=1;shadow=0;" vertex="1" parent="WIyWlLk6GJQsqaUBKTNV-1">
          <mxGeometry x="470" y="330" width="210" height="40" as="geometry" />
        </mxCell>
        <mxCell id="RUl-6O_mT9dBvLN3qeWU-20" value="" style="shape=flexArrow;endArrow=classic;html=1;entryX=0;entryY=0.5;entryDx=0;entryDy=0;exitX=1;exitY=0.5;exitDx=0;exitDy=0;" edge="1" parent="WIyWlLk6GJQsqaUBKTNV-1" source="RUl-6O_mT9dBvLN3qeWU-22" target="RUl-6O_mT9dBvLN3qeWU-19">
          <mxGeometry width="50" height="50" relative="1" as="geometry">
            <mxPoint x="380" y="420" as="sourcePoint" />
            <mxPoint x="490" y="390" as="targetPoint" />
          </mxGeometry>
        </mxCell>
        <mxCell id="RUl-6O_mT9dBvLN3qeWU-22" value="вывод полученного массива на экран" style="rounded=1;whiteSpace=wrap;html=1;align=left;" vertex="1" parent="WIyWlLk6GJQsqaUBKTNV-1">
          <mxGeometry x="40" y="320" width="350" height="30" as="geometry" />
        </mxCell>
        <mxCell id="RUl-6O_mT9dBvLN3qeWU-35" value="вычисление НОД массива" style="rounded=1;whiteSpace=wrap;html=1;fontSize=12;glass=0;strokeWidth=1;shadow=0;" vertex="1" parent="WIyWlLk6GJQsqaUBKTNV-1">
          <mxGeometry x="470" y="390" width="210" height="40" as="geometry" />
        </mxCell>
        <mxCell id="RUl-6O_mT9dBvLN3qeWU-36" value="" style="shape=flexArrow;endArrow=classic;html=1;entryX=0;entryY=0.5;entryDx=0;entryDy=0;exitX=1;exitY=0.5;exitDx=0;exitDy=0;" edge="1" parent="WIyWlLk6GJQsqaUBKTNV-1" source="RUl-6O_mT9dBvLN3qeWU-34" target="RUl-6O_mT9dBvLN3qeWU-35">
          <mxGeometry width="50" height="50" relative="1" as="geometry">
            <mxPoint x="390" y="370" as="sourcePoint" />
            <mxPoint x="500" y="395" as="targetPoint" />
          </mxGeometry>
        </mxCell>
        <mxCell id="RUl-6O_mT9dBvLN3qeWU-38" value="подключение библиотек" style="rounded=1;whiteSpace=wrap;html=1;align=left;" vertex="1" parent="WIyWlLk6GJQsqaUBKTNV-1">
          <mxGeometry x="40" y="100" width="350" height="30" as="geometry" />
        </mxCell>
        <mxCell id="RUl-6O_mT9dBvLN3qeWU-39" value="определение типов&lt;br&gt;объявление функций" style="rounded=1;whiteSpace=wrap;html=1;align=left;" vertex="1" parent="WIyWlLk6GJQsqaUBKTNV-1">
          <mxGeometry x="40" y="130" width="350" height="30" as="geometry" />
        </mxCell>
        <mxCell id="RUl-6O_mT9dBvLN3qeWU-47" value="отдельно определённые функции" style="swimlane;" vertex="1" parent="WIyWlLk6GJQsqaUBKTNV-1">
          <mxGeometry x="470" y="120" width="250" height="320" as="geometry" />
        </mxCell>
        <mxCell id="RUl-6O_mT9dBvLN3qeWU-61" style="edgeStyle=orthogonalEdgeStyle;rounded=0;orthogonalLoop=1;jettySize=auto;html=1;entryX=0.5;entryY=0;entryDx=0;entryDy=0;" edge="1" parent="WIyWlLk6GJQsqaUBKTNV-1" source="RUl-6O_mT9dBvLN3qeWU-48" target="RUl-6O_mT9dBvLN3qeWU-49">
          <mxGeometry relative="1" as="geometry" />
        </mxCell>
        <mxCell id="RUl-6O_mT9dBvLN3qeWU-48" value="&lt;div style=&quot;text-align: left&quot;&gt;&lt;font style=&quot;font-size: 12px&quot;&gt;&lt;span lang=&quot;EN-US&quot; style=&quot;font-family: &amp;#34;calibri&amp;#34; , sans-serif&quot;&gt;char&lt;/span&gt;&lt;span lang=&quot;EN-US&quot; style=&quot;font-family: &amp;#34;calibri&amp;#34; , sans-serif&quot;&gt;&amp;nbsp;&lt;/span&gt;&lt;span lang=&quot;EN-US&quot; style=&quot;font-family: &amp;#34;calibri&amp;#34; , sans-serif&quot;&gt;&lt;b&gt;text_number&lt;/b&gt;&lt;/span&gt;&lt;span lang=&quot;EN-US&quot; style=&quot;font-family: &amp;#34;calibri&amp;#34; , sans-serif&quot;&gt;[256]&lt;/span&gt;&lt;span style=&quot;font-family: &amp;#34;calibri&amp;#34; , sans-serif&quot;&gt;&amp;nbsp;- строка, в которую будем записывать ввод от пользователя&lt;/span&gt;&lt;/font&gt;&lt;/div&gt;&lt;span lang=&quot;EN-US&quot; style=&quot;font-family: &amp;#34;calibri&amp;#34; , sans-serif&quot;&gt;&lt;div style=&quot;text-align: left&quot;&gt;&lt;font style=&quot;font-size: 12px&quot;&gt;&lt;span lang=&quot;EN-US&quot; style=&quot;font-family: &amp;#34;calibri&amp;#34; , sans-serif&quot;&gt;int &lt;b&gt;number&lt;/b&gt;&lt;/span&gt;&lt;span lang=&quot;EN-US&quot; style=&quot;font-family: &amp;#34;calibri&amp;#34; , sans-serif&quot;&gt;&lt;b&gt;&amp;nbsp;&lt;/b&gt;=&amp;nbsp;0 - число, в которое будем превращать пользовательский ввод&lt;/span&gt;&lt;/font&gt;&lt;/div&gt;&lt;/span&gt;" style="rounded=0;whiteSpace=wrap;html=1;" vertex="1" parent="WIyWlLk6GJQsqaUBKTNV-1">
          <mxGeometry x="30" y="550" width="460" height="40" as="geometry" />
        </mxCell>
        <mxCell id="RUl-6O_mT9dBvLN3qeWU-62" style="edgeStyle=orthogonalEdgeStyle;rounded=0;orthogonalLoop=1;jettySize=auto;html=1;" edge="1" parent="WIyWlLk6GJQsqaUBKTNV-1" source="RUl-6O_mT9dBvLN3qeWU-49">
          <mxGeometry relative="1" as="geometry">
            <mxPoint x="260" y="720" as="targetPoint" />
          </mxGeometry>
        </mxCell>
        <mxCell id="RUl-6O_mT9dBvLN3qeWU-49" value="1) просим ввести число не больше заданного &lt;b&gt;max&lt;/b&gt;&lt;br&gt;2) записываем ввод в &lt;b&gt;text_number&lt;/b&gt;&lt;br&gt;3) получаем значение &lt;b&gt;number &lt;/b&gt;как преобразованное в целое число &lt;b&gt;text_number&amp;nbsp;&lt;/b&gt;" style="rounded=1;whiteSpace=wrap;html=1;align=left;" vertex="1" parent="WIyWlLk6GJQsqaUBKTNV-1">
          <mxGeometry x="30" y="620" width="460" height="70" as="geometry" />
        </mxCell>
        <mxCell id="RUl-6O_mT9dBvLN3qeWU-64" value="" style="edgeStyle=orthogonalEdgeStyle;rounded=0;orthogonalLoop=1;jettySize=auto;html=1;" edge="1" parent="WIyWlLk6GJQsqaUBKTNV-1" source="RUl-6O_mT9dBvLN3qeWU-50" target="RUl-6O_mT9dBvLN3qeWU-63">
          <mxGeometry relative="1" as="geometry" />
        </mxCell>
        <mxCell id="RUl-6O_mT9dBvLN3qeWU-50" value="&lt;b&gt;0 &amp;lt;= number &amp;lt;= max&amp;nbsp;&lt;/b&gt;" style="rhombus;whiteSpace=wrap;html=1;" vertex="1" parent="WIyWlLk6GJQsqaUBKTNV-1">
          <mxGeometry x="30" y="720" width="455" height="50" as="geometry" />
        </mxCell>
        <mxCell id="RUl-6O_mT9dBvLN3qeWU-52" value="" style="endArrow=classic;html=1;exitX=1;exitY=0.5;exitDx=0;exitDy=0;entryX=1;entryY=0.5;entryDx=0;entryDy=0;" edge="1" parent="WIyWlLk6GJQsqaUBKTNV-1" source="RUl-6O_mT9dBvLN3qeWU-50" target="RUl-6O_mT9dBvLN3qeWU-49">
          <mxGeometry width="50" height="50" relative="1" as="geometry">
            <mxPoint x="280" y="910" as="sourcePoint" />
            <mxPoint x="490" y="640" as="targetPoint" />
            <Array as="points">
              <mxPoint x="530" y="745" />
              <mxPoint x="530" y="655" />
            </Array>
          </mxGeometry>
        </mxCell>
        <mxCell id="RUl-6O_mT9dBvLN3qeWU-53" value="истина" style="text;html=1;strokeColor=none;fillColor=none;align=center;verticalAlign=middle;whiteSpace=wrap;rounded=0;" vertex="1" parent="WIyWlLk6GJQsqaUBKTNV-1">
          <mxGeometry x="270" y="780" width="40" height="20" as="geometry" />
        </mxCell>
        <mxCell id="RUl-6O_mT9dBvLN3qeWU-63" value="&lt;font face=&quot;calibri, sans-serif&quot;&gt;возвращаем &lt;b&gt;number &lt;/b&gt;как результат работы функции&amp;nbsp;&lt;/font&gt;" style="rounded=0;whiteSpace=wrap;html=1;" vertex="1" parent="WIyWlLk6GJQsqaUBKTNV-1">
          <mxGeometry x="27.5" y="810" width="460" height="30" as="geometry" />
        </mxCell>
        <mxCell id="RUl-6O_mT9dBvLN3qeWU-65" value="ложь" style="text;html=1;strokeColor=none;fillColor=none;align=center;verticalAlign=middle;whiteSpace=wrap;rounded=0;" vertex="1" parent="WIyWlLk6GJQsqaUBKTNV-1">
          <mxGeometry x="490" y="750" width="40" height="20" as="geometry" />
        </mxCell>
        <mxCell id="RUl-6O_mT9dBvLN3qeWU-80" style="edgeStyle=orthogonalEdgeStyle;rounded=0;orthogonalLoop=1;jettySize=auto;html=1;entryX=1;entryY=0.5;entryDx=0;entryDy=0;" edge="1" parent="WIyWlLk6GJQsqaUBKTNV-1" source="RUl-6O_mT9dBvLN3qeWU-66" target="RUl-6O_mT9dBvLN3qeWU-70">
          <mxGeometry relative="1" as="geometry" />
        </mxCell>
        <mxCell id="RUl-6O_mT9dBvLN3qeWU-66" value="Вспомогательная функция&lt;br&gt;определение минимального элемента массива" style="rounded=1;whiteSpace=wrap;html=1;" vertex="1" parent="WIyWlLk6GJQsqaUBKTNV-1">
          <mxGeometry x="790" y="960" width="312.5" height="60" as="geometry" />
        </mxCell>
        <mxCell id="RUl-6O_mT9dBvLN3qeWU-75" style="edgeStyle=orthogonalEdgeStyle;rounded=0;orthogonalLoop=1;jettySize=auto;html=1;entryX=0.5;entryY=0;entryDx=0;entryDy=0;" edge="1" parent="WIyWlLk6GJQsqaUBKTNV-1" source="RUl-6O_mT9dBvLN3qeWU-67" target="RUl-6O_mT9dBvLN3qeWU-72">
          <mxGeometry relative="1" as="geometry">
            <Array as="points">
              <mxPoint x="588" y="1080" />
            </Array>
          </mxGeometry>
        </mxCell>
        <mxCell id="RUl-6O_mT9dBvLN3qeWU-93" style="edgeStyle=orthogonalEdgeStyle;rounded=0;orthogonalLoop=1;jettySize=auto;html=1;entryX=1;entryY=0.5;entryDx=0;entryDy=0;" edge="1" parent="WIyWlLk6GJQsqaUBKTNV-1" source="RUl-6O_mT9dBvLN3qeWU-67" target="RUl-6O_mT9dBvLN3qeWU-87">
          <mxGeometry relative="1" as="geometry">
            <mxPoint x="746" y="1320" as="targetPoint" />
            <Array as="points">
              <mxPoint x="976" y="1310" />
            </Array>
          </mxGeometry>
        </mxCell>
        <mxCell id="RUl-6O_mT9dBvLN3qeWU-67" value="Вспомогательная функция&lt;br&gt;проверяет, является ли переданное число делителем всех элементов переданного массива" style="rounded=1;whiteSpace=wrap;html=1;" vertex="1" parent="WIyWlLk6GJQsqaUBKTNV-1">
          <mxGeometry x="796" y="1030" width="312.5" height="60" as="geometry" />
        </mxCell>
        <mxCell id="RUl-6O_mT9dBvLN3qeWU-73" style="edgeStyle=orthogonalEdgeStyle;rounded=0;orthogonalLoop=1;jettySize=auto;html=1;exitX=0.473;exitY=1.075;exitDx=0;exitDy=0;exitPerimeter=0;" edge="1" parent="WIyWlLk6GJQsqaUBKTNV-1" source="RUl-6O_mT9dBvLN3qeWU-70" target="RUl-6O_mT9dBvLN3qeWU-67">
          <mxGeometry relative="1" as="geometry">
            <Array as="points">
              <mxPoint x="572" y="1080" />
            </Array>
          </mxGeometry>
        </mxCell>
        <mxCell id="RUl-6O_mT9dBvLN3qeWU-70" value="&lt;b&gt;min&lt;/b&gt; - минимальный элемент массива" style="rounded=1;whiteSpace=wrap;html=1;align=left;" vertex="1" parent="WIyWlLk6GJQsqaUBKTNV-1">
          <mxGeometry x="434" y="970" width="300" height="40" as="geometry" />
        </mxCell>
        <mxCell id="RUl-6O_mT9dBvLN3qeWU-83" style="edgeStyle=orthogonalEdgeStyle;rounded=0;orthogonalLoop=1;jettySize=auto;html=1;entryX=0;entryY=0.375;entryDx=0;entryDy=0;entryPerimeter=0;" edge="1" parent="WIyWlLk6GJQsqaUBKTNV-1" source="RUl-6O_mT9dBvLN3qeWU-72" target="RUl-6O_mT9dBvLN3qeWU-76">
          <mxGeometry relative="1" as="geometry" />
        </mxCell>
        <mxCell id="RUl-6O_mT9dBvLN3qeWU-85" style="edgeStyle=orthogonalEdgeStyle;rounded=0;orthogonalLoop=1;jettySize=auto;html=1;entryX=0.473;entryY=-0.033;entryDx=0;entryDy=0;entryPerimeter=0;" edge="1" parent="WIyWlLk6GJQsqaUBKTNV-1" source="RUl-6O_mT9dBvLN3qeWU-72" target="RUl-6O_mT9dBvLN3qeWU-81">
          <mxGeometry relative="1" as="geometry" />
        </mxCell>
        <mxCell id="RUl-6O_mT9dBvLN3qeWU-72" value="&lt;b&gt;min &lt;/b&gt;- общий делитель &lt;br&gt;всех элементов массива" style="rhombus;whiteSpace=wrap;html=1;" vertex="1" parent="WIyWlLk6GJQsqaUBKTNV-1">
          <mxGeometry x="436" y="1110" width="304" height="80" as="geometry" />
        </mxCell>
        <mxCell id="RUl-6O_mT9dBvLN3qeWU-76" value="возвращаем &lt;b&gt;min &lt;/b&gt;как результат работы функции" style="ellipse;whiteSpace=wrap;html=1;rotation=0;" vertex="1" parent="WIyWlLk6GJQsqaUBKTNV-1">
          <mxGeometry x="796" y="1120" width="120" height="80" as="geometry" />
        </mxCell>
        <mxCell id="RUl-6O_mT9dBvLN3qeWU-78" value="истина" style="text;html=1;strokeColor=none;fillColor=none;align=center;verticalAlign=middle;whiteSpace=wrap;rounded=0;" vertex="1" parent="WIyWlLk6GJQsqaUBKTNV-1">
          <mxGeometry x="746" y="1159" width="40" height="20" as="geometry" />
        </mxCell>
        <mxCell id="RUl-6O_mT9dBvLN3qeWU-81" value="&lt;b&gt;max_divider = min/2&lt;/b&gt;" style="rounded=1;whiteSpace=wrap;html=1;align=left;" vertex="1" parent="WIyWlLk6GJQsqaUBKTNV-1">
          <mxGeometry x="446" y="1220" width="300" height="30" as="geometry" />
        </mxCell>
        <mxCell id="RUl-6O_mT9dBvLN3qeWU-86" value="ложь" style="text;html=1;strokeColor=none;fillColor=none;align=center;verticalAlign=middle;whiteSpace=wrap;rounded=0;" vertex="1" parent="WIyWlLk6GJQsqaUBKTNV-1">
          <mxGeometry x="596" y="1190" width="40" height="20" as="geometry" />
        </mxCell>
        <mxCell id="RUl-6O_mT9dBvLN3qeWU-92" style="edgeStyle=orthogonalEdgeStyle;rounded=0;orthogonalLoop=1;jettySize=auto;html=1;exitX=1;exitY=0.5;exitDx=0;exitDy=0;" edge="1" parent="WIyWlLk6GJQsqaUBKTNV-1" source="RUl-6O_mT9dBvLN3qeWU-81" target="RUl-6O_mT9dBvLN3qeWU-67">
          <mxGeometry relative="1" as="geometry">
            <Array as="points">
              <mxPoint x="936" y="1235" />
            </Array>
          </mxGeometry>
        </mxCell>
        <mxCell id="RUl-6O_mT9dBvLN3qeWU-96" style="edgeStyle=orthogonalEdgeStyle;rounded=0;orthogonalLoop=1;jettySize=auto;html=1;entryX=0;entryY=0.5;entryDx=0;entryDy=0;" edge="1" parent="WIyWlLk6GJQsqaUBKTNV-1" target="RUl-6O_mT9dBvLN3qeWU-94">
          <mxGeometry relative="1" as="geometry">
            <mxPoint x="646" y="1340" as="sourcePoint" />
            <Array as="points">
              <mxPoint x="646" y="1380" />
            </Array>
          </mxGeometry>
        </mxCell>
        <mxCell id="RUl-6O_mT9dBvLN3qeWU-98" style="edgeStyle=orthogonalEdgeStyle;rounded=0;orthogonalLoop=1;jettySize=auto;html=1;entryX=0.5;entryY=0;entryDx=0;entryDy=0;" edge="1" parent="WIyWlLk6GJQsqaUBKTNV-1" source="RUl-6O_mT9dBvLN3qeWU-87" target="RUl-6O_mT9dBvLN3qeWU-97">
          <mxGeometry relative="1" as="geometry" />
        </mxCell>
        <mxCell id="RUl-6O_mT9dBvLN3qeWU-101" style="edgeStyle=orthogonalEdgeStyle;rounded=0;orthogonalLoop=1;jettySize=auto;html=1;entryX=0.576;entryY=1.017;entryDx=0;entryDy=0;entryPerimeter=0;" edge="1" parent="WIyWlLk6GJQsqaUBKTNV-1" source="RUl-6O_mT9dBvLN3qeWU-87" target="RUl-6O_mT9dBvLN3qeWU-67">
          <mxGeometry relative="1" as="geometry" />
        </mxCell>
        <mxCell id="RUl-6O_mT9dBvLN3qeWU-87" value="&lt;b&gt;max_divider &lt;/b&gt;= 1 или&amp;nbsp;общий делитель &lt;br&gt;всех элементов массива" style="rhombus;whiteSpace=wrap;html=1;" vertex="1" parent="WIyWlLk6GJQsqaUBKTNV-1">
          <mxGeometry x="440" y="1270" width="306" height="80" as="geometry" />
        </mxCell>
        <mxCell id="RUl-6O_mT9dBvLN3qeWU-94" value="возвращаем &lt;b&gt;max_divider&amp;nbsp;&lt;/b&gt;как результат работы функции" style="ellipse;whiteSpace=wrap;html=1;rotation=0;" vertex="1" parent="WIyWlLk6GJQsqaUBKTNV-1">
          <mxGeometry x="806" y="1340" width="130" height="80" as="geometry" />
        </mxCell>
        <mxCell id="RUl-6O_mT9dBvLN3qeWU-95" value="истина" style="text;html=1;strokeColor=none;fillColor=none;align=center;verticalAlign=middle;whiteSpace=wrap;rounded=0;" vertex="1" parent="WIyWlLk6GJQsqaUBKTNV-1">
          <mxGeometry x="700" y="1360" width="40" height="20" as="geometry" />
        </mxCell>
        <mxCell id="RUl-6O_mT9dBvLN3qeWU-100" style="edgeStyle=orthogonalEdgeStyle;rounded=0;orthogonalLoop=1;jettySize=auto;html=1;entryX=0;entryY=0.5;entryDx=0;entryDy=0;" edge="1" parent="WIyWlLk6GJQsqaUBKTNV-1" source="RUl-6O_mT9dBvLN3qeWU-97" target="RUl-6O_mT9dBvLN3qeWU-87">
          <mxGeometry relative="1" as="geometry">
            <Array as="points">
              <mxPoint x="420" y="1415" />
              <mxPoint x="420" y="1310" />
            </Array>
          </mxGeometry>
        </mxCell>
        <mxCell id="RUl-6O_mT9dBvLN3qeWU-97" value="уменьшаем &lt;b&gt;max_divider&lt;/b&gt; на 1&amp;nbsp;" style="rounded=1;whiteSpace=wrap;html=1;align=left;" vertex="1" parent="WIyWlLk6GJQsqaUBKTNV-1">
          <mxGeometry x="443" y="1400" width="300" height="30" as="geometry" />
        </mxCell>
        <mxCell id="RUl-6O_mT9dBvLN3qeWU-99" value="ложь" style="text;html=1;strokeColor=none;fillColor=none;align=center;verticalAlign=middle;whiteSpace=wrap;rounded=0;" vertex="1" parent="WIyWlLk6GJQsqaUBKTNV-1">
          <mxGeometry x="546" y="1360" width="40" height="20" as="geometry" />
        </mxCell>
      </root>
    </mxGraphModel>
  </diagram>
</mxfile>
